<?xml version="1.0" encoding="utf-8"?>
<!-- Generator: Adobe Illustrator 19.0.0, SVG Export Plug-In . SVG Version: 6.00 Build 0)  -->
<svg class="kosicky-kraj" version="1.1" id="svgMap" xmlns="http://www.w3.org/2000/svg" xmlns:xlink="http://www.w3.org/1999/xlink" x="0px" y="0px"
	 viewBox="-197 343.6 1000.9 491" style="enable-background:new -197 343.6 1000.9 491;" xml:space="preserve">
<style type="text/css">
	.st0{fill:#FFFFFF;}
	.st1{font-family:'MontserratSubrayada-Bold';}
	.st2{font-size:36.9173px;}
</style>
<g id="kosice">
	<g>
		<path id="RV" data-title="Rožňava" d="M-42.9,493.6l-6.9-10.6h-9.7l-12-15.2l-8.8-10.2l-24.5-9.7l10.6-10.6l-3.2-23.5l-6.9-12.5h-17.1l-16.2,11.1
			l-9.2,19.4l-10.6-5.1l-10.6,22.6l-17.5,40.1l-10.6,20.8l-0.9,18l39.2,36.9l5.1,45.2l25.4,12l-11.1,38.3l-13.8,16.2l1.8,13.8
			l7.8,16.6l22.2,7.8l21.2-4.2l18.9,5.1l13.4-10.6l4.6-8.3l6-20.8h6l12-13.4l10.6,6.9l61.4-18l38.8-5.1l2.3-11.5c0,0,1.4-8.8,3.7-12
			c2.3-3.7,14.3-13.4,14.3-13.4l-10.6-20.8l-12-5.1l-14.3-6.5v-1.8L45.3,584l-18-8.3L12,553.6l6-16.2L1.4,518l-10.6,9.2l-16.6-9.2
			l-12-16.6L-42.9,493.6"/>
		<polygon id="SN" data-title="Spišská Nová Ves" points="-97.3,413.7 -93.6,437.3 -104.2,448.4 -79.8,457.6 -71,467.7 -59,483 -49.8,483 -42.9,493.6 -33.6,483
			-16.6,456.7 -9.2,432.7 9.7,423.4 21.7,423.4 21.7,449.3 50.3,453 67,462.7 103,457.6 125.6,453 139.4,436.4 139.4,423.4 
			131.6,413.7 131.6,401.3 131.6,385.1 125.6,382.8 106.2,375.4 97,356.1 84.5,356.1 79.9,375.4 65.1,380.1 56.8,369.9 41.1,372.2 
			32.8,384.7 19.4,387 3.3,368.5 -11.5,366.7 -35.5,343.6 -53.9,365.3 -71,347.3 -116.7,367.6 -134.7,386.1 -121.3,401.3 
			-104.2,401.3 		"/>
		<path id="KS" data-title="Košice-okolie" d="M56.3,576.2v1.8l14.3,6.5l12,5.1l10.6,20.8c0,0-12,9.7-14.3,13.4c-2.3,3.7-3.7,12-3.7,12L73,647.2l25.8-3.2
			l4.2,18l22.6-1.4l24.5,32.3l26.3-16.2l37.8,23.1V716h12l18.9-19.8l30.9-10.6l15.2,4.6l17.1,6l10.6-19.8h39.2v-18.5l41.5,16.2
			l3.7-6.5l6.9-12.9v-12l12.5-6.9l7.8,6.9v-7.4l-15.2-30v-67.4l11.1-25.8l-1.4-3.7l-25.4-57.2l-42,0.9l-7.8,26.3l-24,4.6L313.4,494
			h-16.2l-9.2-24l9.2-12.5l-36.5-7.8L246,431.3h-38.8v12v18v26.3l-20.8,28.6l-18.5-6l-18,17.5l-35.5-17.5L103,527.7l-8.8,10.2H67
			L56.3,554L56.3,576.2"/>
		<polygon id="GL" data-title="Gelnica" points="131.6,413.7 139.4,423.4 139.4,436.4 125.6,453 103,457.6 67,462.7 50.3,453 21.7,449.3 21.7,423.4
			9.7,423.4 -9.2,432.7 -16.6,456.7 -33.6,483 -42.9,493.6 -37.8,501.9 -25.8,518.5 -9.2,527.7 1.4,518.5 18,537.9 12,554 
			27.7,576.2 45.3,584 56.3,576.2 56.3,554 67,537.9 94.2,537.9 103,527.7 114.5,510.2 150,527.7 168,510.2 186.5,515.7 
			207.2,487.6 207.2,461.3 207.2,443.3 207.2,431.7 192.9,431.7 171.3,386.1 155.1,393.9 131.6,385.1 131.6,401.3 		"/>
		<polygon id="TV" data-title="Trebišov" points="659,732.2 643.3,715.1 621.2,715.1 570.9,715.1 552,751.5 540,732.2 540,707.2 545.5,700.3 540,686
			540,675.9 533,653.7 533,620.5 524.3,609.9 515,589.1 505.4,572.9 505.4,564.2 515,556.3 524.3,548 517.8,527.3 498,537.9 
			426,512 415.4,537.9 415.4,605.3 430.6,635.2 430.6,642.2 422.7,635.2 410.3,642.2 410.3,653.7 403.4,667.1 399.2,673.5 
			405.7,675.9 411.7,698.9 444.9,709.5 458.3,751.5 474.4,795.4 492.4,820.3 524.3,834.6 545.5,834.6 545.5,820.3 569.5,818.9 
			594.4,812.9 621.2,807.4 643.3,803.7 670.6,810.6 690.4,802.3 684.9,773.2 688.1,756.2 678.9,751.5 		"/>
		<polygon id="SO" data-title="Sobrance" points="803.9,483 792.4,475.1 752.2,467.7 738.9,432.7 724.1,434 715.8,440 702.4,450.7 711.2,467.7 707.5,483
			695.5,508.8 663.6,537.9 672.9,551.7 659,560 670.6,609.9 682.6,625.1 682.6,645.4 690.4,662 701.9,675.4 715.8,643.1 
			732.4,647.7 743,631.1 767,609.9 785,600.2 797.9,574.3 785,552.6 803.9,527.7 		"/>
		<polygon id="MI" data-title="Michalovce" points="682.6,645.4 682.6,625.1 670.6,609.9 659,560 672.9,551.7 663.6,537.9 695.5,508.8 707.5,483
			711.2,467.7 702.4,450.7 691.8,459 691.8,494 632.7,483 615.2,483 604.1,467.7 578.7,453.4 545.5,452 537.7,431.7 541.3,514.8 
			517.8,527.3 524.3,548 515,556.3 505.4,564.2 505.4,572.9 515,589.1 524.3,609.9 533,620.5 533,653.7 540,675.9 540,686 
			545.5,700.3 540,707.2 540,732.2 552,751.5 570.9,715.1 621.2,715.1 643.3,715.1 659,732.2 678.9,751.5 688.1,756.2 701.5,675.9 
			701.9,675.4 690.4,662 		"/>
	</g>
	<!-- <polygon id="KE" points="249.2,484.8 243.2,489.4 243.2,498.2 243.2,512 233.1,512 228.9,527.7 239.1,527.7 249.2,537.9 249.2,554 
		262.2,568.8 257.5,584 253.4,593.7 245.5,600.2 243.2,593.7 236.3,593.7 228.9,600.2 228.9,609.9 228.9,618.2 245.5,623.7 
		245.5,636.6 254.3,649.6 262.2,659.2 273.7,659.2 278.3,647.2 273.7,634.3 273.7,614.9 278.3,609.9 294.5,609.9 315.7,609.9 
		336,616.3 336,601.1 328.1,593.7 328.1,578.5 328.1,567.9 321.2,558.2 321.2,543 317.1,537.9 313.8,527.7 309.2,512 308.3,506.5 
		295.4,512 285.7,512 278.3,512 268.6,501 262.2,494 255.7,484.8 	"/> -->
</g>
<text transform="matrix(1 0 0 1 -108.166 577.9349)" class="st0 st1 st2">RV</text>
<text transform="matrix(1 0 0 1 -62.79 414.1156)" class="st0 st1 st2">SN</text>
<text transform="matrix(1 0 0 1 46.4248 502.5609)" class="st0 st1 st2">GL</text>
<text transform="matrix(1 0 0 1 261.7754 577.5511)" class="st0 st1 st2">KE</text>
<text transform="matrix(1 0 0 1 444.0537 656.7699)" class="st0 st1 st2">TV</text>
<text transform="matrix(1 0 0 1 554.8057 622.1576)" class="st0 st1 st2">MI</text>
<text transform="matrix(1 0 0 1 706.7051 568.7054)" class="st0 st1 st2">SO</text>
</svg>
