<?xml version="1.0" encoding="utf-8"?>
<!-- Generator: Adobe Illustrator 19.0.0, SVG Export Plug-In . SVG Version: 6.00 Build 0)  -->
<svg class="nitriansky-kraj" version="1.1" id="svgMap" xmlns="http://www.w3.org/2000/svg" xmlns:xlink="http://www.w3.org/1999/xlink" x="0px" y="0px"
	 viewBox="-234 322.7 1302 1368.4" style="enable-background:new -234 322.7 1302 1368.4;" xml:space="preserve">
<style type="text/css">
	.st0{fill:#FFFFFF;}
	.st1{font-family:'MontserratSubrayada-Bold';}
	.st2{font-size:73.82px;}
</style>
<g id="nitra">
	<polygon id="KN" data-title="Komárno" class="red" points="531,1640.4 521.7,1597 499.6,1589.6 478.4,1564.7 457.1,1547.2 435.9,1529.7 418.4,1517.7 377.8,1512.1
		377.8,1484.4 377.8,1433.7 348.3,1419.8 328.9,1433.7 305.8,1419.8 255.1,1381.1 192.3,1389.4 192.3,1363.6 157.2,1356.2 
		134.2,1373.7 101,1373.7 60.4,1373.7 77.9,1363.6 65.9,1331.3 25.3,1343.3 19.8,1345.1 -22.7,1328.5 -37.5,1328.5 -62.4,1321.1 
		-64.2,1345.1 -53.1,1355.3 -62.4,1385.7 -58.7,1410.6 -74.4,1431.8 -114,1465.1 -131.6,1465.1 -148.2,1490 -152.8,1534.3 
		-189.7,1557.3 -213.7,1545.3 -217.4,1576.7 -234,1610.9 -173.1,1645.9 -127.9,1645.9 -106.7,1645.9 -76.2,1653.3 -34.7,1644.1 
		0.4,1632.1 17.9,1653.3 54.8,1632.1 87.1,1645.9 117.6,1653.3 157.2,1667.1 190.5,1677.3 223.7,1677.3 262.4,1691.1 285.5,1691.1 
		316.9,1691.1 355.6,1691.1 397.2,1691.1 439.6,1673.6 459,1665.3 486.7,1681 497.7,1679.1 495.9,1626.5 	"/>
	<polygon id="TO" data-title="Topoľčany" class="red" points="111.1,673.3 124.9,673.3 141.6,673.3 168.3,700.1 168.3,714.9 183.1,725 209.8,735.2 237.5,707.5
		271.7,714.9 287.4,728.7 303,707.5 326.1,701 351,673.3 369.5,658.6 383.3,658.6 406.4,642 400.9,638.3 388.9,594 340,566.3 
		325.2,541.4 367.6,491.6 350.1,459.3 283.7,434.4 251.4,361.5 153.6,322.7 134.2,344.8 157.2,434.4 137.9,454.7 117.6,476.8 
		108.3,497.1 71.4,497.1 45.6,488.8 8.7,534 -10.7,578.3 17.9,605.1 45.6,626.3 77.9,666 72.4,673.3 93.6,673.3 	"/>
	<polygon id="ZM" data-title="Zlaté Moravce" points="369.5,658.6 351,673.3 326.1,701 303,707.5 287.4,728.7 289.2,730.6 321.5,766.5 337.2,785 346.4,809.9
		346.4,848.7 321.5,869.9 344.6,888.3 351.9,888.3 364.9,904 375,904 375,926.2 396.2,926.2 420.2,933.6 411,945.6 420.2,960.3 
		467.3,974.2 459,956.6 486.7,942.8 531,972.3 520.8,942.8 539.3,933.6 539.3,885.6 564.2,894.8 590,888.3 599.2,869.9 634.3,846.8 
		626,819.1 604.8,766.5 589.1,725.9 622.3,667.8 601.1,638.3 558.6,658.6 587.2,620.7 562.3,594 468.2,642 435.9,658.6 406.4,642 
		383.3,658.6 	"/>
	<polygon id="NR" data-title="Nitra" class="red" points="8.7,919.7 25.3,944.6 72.4,969.5 84.3,997.2 77.9,1024.9 59.4,1046.1 75.1,1080.3 77.9,1077.5 118.5,1107
		148.9,1085.8 211.7,1050.7 244.9,1039.7 256.9,1056.3 244.9,1077.5 262.4,1091.4 305.8,1077.5 305.8,1039.7 344.6,1064.6 
		357.5,1077.5 396.2,1084.9 412.8,1060.9 399,1031.4 431.3,1039.7 449.8,1031.4 486.7,1013.8 467.3,974.2 420.2,960.3 411,945.6 
		420.2,933.6 396.2,926.2 375,926.2 375,904 364.9,904 351.9,888.3 344.6,888.3 321.5,869.9 346.4,848.7 346.4,809.9 337.2,785 
		321.5,766.5 289.2,730.6 287.4,728.7 287.4,728.7 287.4,728.7 271.7,714.9 237.5,707.5 209.8,735.2 183.1,725 168.3,714.9 
		168.3,700.1 141.6,673.3 124.9,673.3 111.1,673.3 93.6,673.3 72.4,673.3 -32.8,824.7 -55,892 -22.7,904 -29.1,916 -11.6,919.7 	"/>
	<path id="LV" data-title="Levice" d="M876.1,952.9l-20.3-26.8l-10.2-61.8l-31.4-28.6l-17.5-25.8h-7.4l0,0l0,0h-34.1L734,835.7l-13.8,37.8l-24.9,13.8
		l-24.9-10.2h-31.4l-21.2,5.5l-24.9,35.1l-7.4-20.3l4.6-10.2l-25.8,6.5l-24.9-9.2v48.9l-18.5,9.2l10.2,29.5l-44.3-29.5L459,956.6
		l8.3,17.5l0,0l0,0l19.4,39.7l-36.9,16.6l-18.5,9.2l-31.4-9.2l12.9,29.5l-16.6,24.9l2.8,0.9v21.2l21.2,12l12,27.7l56.3,19.4
		l1.8,36.9l-15.7,24h-12l13.8,51.7l-13.8,13.8l27.7,29.5l-15.7,11.1l10.2,24.9l-10.2,19.4v36.9l73.8,21.2l17.5-12l42.4,12l21.2-12
		l36.9,23.1l23.1-23.1l35.1,13.8H769l-7.4-19.4l-5.5-17.5c12-12,35.1-12,35.1-12h15.7l7.4-24.9v-47.1l19.4-9.2h40.6h24.9l50.8-10.2
		l23.1,7.4l24.9-29.5l10.2-24.9l19.4-21.2l21.2-14.8v-27.7V1167l19.4-29.5l-13.8-33.2h-1.8l-8.3,14.8l8.3-14.8h-31.4l-60,31.4
		l-29.5,15.7l-23.1,7.4l-58.1-33.2l-27.7,15.7l-7.4-36.9l33.2-19.4l-19.4-40.6l15.7-22.1l29.5-28.6l5.5-35.1L876.1,952.9"/>
	<polygon id="SA" data-title="Šaľa" class="red" points="-22.7,1328.5 19.8,1345.1 25.3,1343.3 34.5,1321.1 56.7,1299.9 77.9,1268.5 54.8,1227 54.8,1198.4
		60.4,1167 77.9,1138.4 44.7,1119 54.8,1101.5 75.1,1080.3 59.4,1046.1 77.9,1024.9 84.3,997.2 72.4,969.5 25.3,944.6 8.7,919.7 
		-11.6,919.7 -29.1,916 -43.9,944.6 -48.5,979.7 -22.7,1009.2 -67,1039.7 -80.8,1024.9 -96.5,1024.9 -75.3,1060 -95.6,1082.1 
		-125.1,1071 -144.5,1082.1 -88.2,1156.9 -117.7,1191 -81.7,1189.2 -74.4,1214.1 -47.6,1227 -59.6,1269.4 -62.4,1321.1 
		-37.5,1328.5 	"/>
	<polygon id="NZ" data-title="Nové Zámky" class="red" points="690.6,1424.5 667.5,1447.5 630.6,1424.5 608.5,1435.5 566,1424.5 548.5,1435.5 474.7,1414.3 474.7,1377.4
		483.9,1358 474.7,1333.1 490.4,1321.1 462.7,1291.6 476.5,1278.7 462.7,1227 474.7,1227 490.4,1202.1 488.5,1165.2 432.2,1145.8 
		420.2,1119 399,1107 399,1085.8 396.2,1084.9 386.1,1098.7 396.2,1084.9 357.5,1077.5 344.6,1064.6 305.8,1039.7 305.8,1077.5 
		262.4,1091.4 244.9,1077.5 256.9,1056.3 244.9,1039.7 211.7,1050.7 148.9,1085.8 118.5,1107 77.9,1077.5 75.1,1080.3 54.8,1101.5 
		44.7,1119 77.9,1138.4 60.4,1167 54.8,1198.4 54.8,1227 77.9,1268.5 56.7,1299.9 34.5,1321.1 25.3,1343.3 65.9,1331.3 77.9,1363.6 
		60.4,1373.7 101,1373.7 134.2,1373.7 157.2,1356.2 192.3,1363.6 192.3,1389.4 255.1,1381.1 305.8,1419.8 328.9,1433.7 
		348.3,1419.8 377.8,1433.7 377.8,1484.4 377.8,1512.1 418.4,1517.7 435.9,1529.7 457.1,1547.2 478.4,1564.7 499.6,1589.6 
		521.7,1597 531,1640.4 495.9,1626.5 497.7,1679.1 519,1675.5 569.7,1673.6 606.6,1691.1 641.7,1691.1 673.1,1679.1 696.1,1650.5 
		717.4,1621 752.4,1610.9 778.3,1610.9 815.2,1626.5 815.2,1610.9 805,1598.9 795.8,1575.8 778.3,1554.6 750.6,1537 748.7,1496.4 
		752.4,1477.1 772.7,1445.7 769,1437.4 725.7,1437.4 	"/>
</g>
<text transform="matrix(1 0 0 1 597.2371 1161.8914)" class="st0 st1 st2">LV</text>
<text transform="matrix(1 0 0 1 179.6914 1272.6257)" class="st0 st1 st2">NZ</text>
<text transform="matrix(1 0 0 1 13.5988 1530.9902)" class="st0 st1 st2">KN</text>
<text transform="matrix(1 0 0 1 -74.0642 1159.5844)" class="st0 st1 st2">SA</text>
<text transform="matrix(1 0 0 1 48.1989 908.132)" class="st0 st1 st2">NR</text>
<text transform="matrix(1 0 0 1 124.3298 571.3262)" class="st0 st1 st2">TO</text>
<text transform="matrix(1 0 0 1 345.7813 804.3274)" class="st0 st1 st2">ZM</text>
</svg>
