<?xml version="1.0" encoding="utf-8"?>
<!-- Generator: Adobe Illustrator 19.0.0, SVG Export Plug-In . SVG Version: 6.00 Build 0)  -->
<svg class="trenciansky-kraj" version="1.1" id="svgMap" xmlns="http://www.w3.org/2000/svg" xmlns:xlink="http://www.w3.org/1999/xlink" x="0px" y="0px"
	 viewBox="-233 335.3 998 852" style="enable-background:new -233 335.3 998 852;" xml:space="preserve">
<style type="text/css">
	.st0{fill:#FFFFFF;}
	.st1{font-family:'MontserratSubrayada-Bold';}
	.st2{font-size:55.1001px;}
</style>
<g id="trencin">
	<g>
		<path id="PB" data-title="Považská Bystrica" d="M508.8,683.8l15.2,13.1l21.4,22h2.8l9-10.3v-17.9l41.3-6.9l32.4-26.9v-50.3l-17.2-21.4l-15.2-17.9l24.1-20
			l-4.1-15.2l-42-29.6l-28.2-20l-57.9-147.4l-62.7,18.6l-15.8,0.7v24.8l15.8,28.2l12.4,37.9h13.8v20l20,24.1l13.8,25.5
			c0,0,19.3,26.9,13.1,31s-18.6,44.8-18.6,44.8l9.6,15.2l-11,18.6l11,24.1l10.3,28.2L508.8,683.8"/>
		<path id="PU" data-title="Púchov" d="M346.2,539.9l55.8,81.3l16.5-9.6l29.6,25.5l20,32.4l14.5,28.2h18.6l8.3-14.5l-6.9-5.5l-10.3-28.2l-11-24.1
			l11-18.6l-9.6-15.2c0,0,12.4-40.6,18.6-44.8c6.2-4.1-13.1-31-13.1-31l-13.8-25.5l-20-24.1v-20h-13.8l-12.4-37.9l-15.8-28.2v-24.8
			l-32.4,2.1l-13.1,24.1l-18.6,11l-4.1,37.9l-13.8,35.1l-17.2,37.2l21.4,11.7L346.2,539.9z"/>
		<polyline id="IL" data-title="Ilava" points="431.6,741.7 435.1,741.7 462.6,741.7 486.7,748.6 508.1,760.9 536.3,760.9 541.2,754.1 550.8,735.5
			549.4,734.1 532.9,718.9 546,718.9 523.9,696.9 508.8,683.8 501.2,698.3 481.9,698.3 467.5,670 447.5,637.7 417.9,611.5 
			401.3,621.1 346.2,539.9 333.8,513 312.5,501.3 312.5,502 307,535.7 298.7,576.4 282.2,602.5 287.7,636.3 315.9,687.3 
			298.7,718.9 329.7,741.7 356.6,741.7 380,741.7 413.7,741.7 431.6,741.7 		"/>
		<polygon id="MY" data-title="Myjava" class="red" points="-11.2,926.9 -0.2,901.5 -0.2,875.3 -11.2,866.3 -39.5,860.8 -56,852.6 -56,832.6 -56,802.3 -64.3,789.2
			-80.8,799.5 -108.3,809.2 -135.2,799.5 -146.2,776.8 -158.6,769.9 -208.2,798.1 -208.2,814.7 -233,831.9 -224.7,843.6 
			-198.6,825.7 -188.9,837.4 -188.9,847 -174.5,852.6 -160.7,860.1 -146.9,874.6 -146.9,893.2 -160.7,907.7 -161.4,930.4 
			-146.9,957.2 -142.1,982.7 -135.2,993.7 -115.2,982 -103.5,984.1 -73.9,990.3 -66.3,954.5 -34.6,971.7 -5,957.2 -0.2,936.6 		"/>
		<polygon id="BN" data-title="Bánovce nad Bebravou" class="red" points="373.1,1021.3 387.6,1011 416.5,1028.9 416.5,987.5 449.6,969 447.5,965.5 447.5,943.5 478.5,936.6
			501.2,920.7 495,895.3 484,860.8 484,820.2 461.3,807.8 447.5,793.3 438.5,775.4 412.4,791.9 404.1,780.9 357.9,798.1 
			357.9,820.2 346.2,841.5 353.1,864.9 353.1,893.2 338,893.2 312.5,893.2 298,907 282.2,920.7 245.7,904.2 223,893.2 194.7,900.1 
			194.7,920.7 199.5,937.3 271.9,965.5 296,1019.9 329,1031.6 339.4,1011 		"/>
		<polygon id="TN" data-title="Trenčín" class="red" points="95.5,743 123.1,820.2 109.3,833.3 129.3,833.3 149.9,833.3 162.3,853.9 183.7,886.3 194.7,900.1
			194.7,900.1 223,893.2 245.7,904.2 282.2,920.7 298,907 312.5,893.2 338,893.2 353.1,893.2 353.1,864.9 346.2,841.5 357.9,820.2 
			357.9,798.1 404.1,780.9 412.4,791.9 438.5,775.4 435.1,769.9 431.6,741.7 413.7,741.7 380,741.7 356.6,741.7 329.7,741.7 
			298.7,718.9 315.9,687.3 287.7,636.3 282.2,602.5 273.2,617 231.9,622.5 172,623.9 151.3,672.8 133.4,718.9 109.3,715.5 
			109.3,725.1 		"/>
		<polygon id="PE" data-title="Partizánske" class="red" points="501.2,1062.6 488.1,1051.6 501.2,1028.9 501.2,999.9 477.1,999.9 465.4,987.5 458.5,982 449.6,969
			416.5,987.5 416.5,1028.9 387.6,1011 373.1,1021.3 339.4,1011 329,1031.6 345.6,1038.5 358.6,1062.6 327,1099.8 338,1118.4 
			374.5,1139.1 383.4,1172.1 409.6,1187.3 504,1139.1 519.1,1121.2 525.3,1123.9 495,1077.8 		"/>
		<polyline id="PD" data-title="Prievidza" points="449.6,969 458.5,982 465.4,987.5 477.1,999.9 501.2,999.9 501.2,1028.9 488.1,1051.6 501.2,1062.6
			495,1077.8 525.3,1123.9 539.1,1130.1 577.7,1109.5 582.5,1118.4 634.1,1059.9 666.5,1068.8 670.6,1049.5 709.9,1002.7 
			727.8,1002.7 765,947.6 742.3,919.4 727.8,901.5 732.6,887.7 681.7,852.6 687.2,791.9 680.3,767.1 701.6,755.4 694.1,734.8 
			641,718.9 616.9,718.9 607.3,709.3 590.7,730.6 565.3,740.3 550.8,735.5 541.2,754.1 536.3,760.9 508.1,760.9 486.7,748.6 
			462.6,741.7 435.1,741.7 431.6,741.7 435.1,769.9 438.5,775.4 438.5,775.4 438.5,775.4 447.5,793.3 461.3,807.8 484,820.2 
			484,860.8 495,895.3 501.2,920.7 478.5,936.6 447.5,943.5 447.5,965.5 449.6,969 		"/>
		<polygon id="NM" data-title="Nové Mesto nad Váhom" class="red" points="194.7,900.1 179.6,904.2 194.7,900.1 194.7,900.1 183.7,886.3 162.3,853.9 149.9,833.3 129.3,833.3
			109.3,833.3 123.1,820.2 95.5,743 109.3,725.1 109.3,715.5 67.3,709.3 5.3,769.9 -45,772.7 -63.6,789.2 -64.3,789.2 -56,802.3 
			-56,832.6 -56,852.6 -39.5,860.8 -11.2,866.3 -0.2,875.3 -0.2,901.5 -11.2,926.9 -0.2,936.6 -5,957.2 1.9,953.1 12.2,986.2 
			37.7,1002.7 65.9,1005.5 72.8,988.9 84.5,1008.9 153.4,1027.5 172,1051.6 201.6,1019.9 184.4,953.1 198.8,936.6 199.5,937.3 
			194.7,920.7 		"/>
	</g>
</g>
<text transform="matrix(1 0 0 1 -134.8595 915.7621)" class="st0 st1 st2">MY</text>
<text transform="matrix(1 0 0 1 32.7387 910.0229)" class="st0 st1 st2">NM</text>
<text transform="matrix(1 0 0 1 176.2277 773.4198)" class="st0 st1 st2">TN</text>
<text transform="matrix(1 0 0 1 375.9632 703.3982)" class="st0 st1 st2">IL</text>
<text transform="matrix(1 0 0 1 355.3054 527.764)" class="st0 st1 st2">PU</text>
<text transform="matrix(1 0 0 1 527.4927 620.748)" class="st0 st1 st2">PB</text>
<text transform="matrix(1 0 0 1 568.816 957.09)" class="st0 st1 st2">PD</text>
<text transform="matrix(1 0 0 1 320.8679 976.6011)" class="st0 st1 st2">BN</text>
<text transform="matrix(1 0 0 1 393.1819 1100.5757)" class="st0 st1 st2">PE</text>
</svg>
