<?xml version="1.0" encoding="utf-8"?>
<!-- Generator: Adobe Illustrator 19.0.0, SVG Export Plug-In . SVG Version: 6.00 Build 0)  -->
<svg class="trnavsky-kraj" version="1.1" id="svgMap" xmlns="http://www.w3.org/2000/svg" xmlns:xlink="http://www.w3.org/1999/xlink" x="0px" y="0px"
	 viewBox="-253 311.8 644 1069.4" style="enable-background:new -253 311.8 644 1069.4;" xml:space="preserve">
<style type="text/css">
	.st0{fill:#FFFFFF;}
	.st1{font-family:'MontserratSubrayada-Bold';}
	.st2{font-size:49.9709px;}
</style>
<g id="trnava">
	<g>
		<polygon id="DS" data-title="Dunajská Streda" class="red" points="221.7,1154.4 206.1,1131.3 196.7,1112.6 174.3,1098.2 161.1,1098.2 146.8,1087.6 146.8,1072
			132.4,1065.1 118,1065.1 124.3,1057 113.7,1048.2 98,1057 87.4,1048.2 68.7,1048.2 76.8,1033.9 61.2,1033.9 46.8,1033.9 
			41.2,1020.1 27.5,1001.4 15,1013.9 -6.9,983.3 -23.1,984.5 -21.3,1013.9 -53.1,1029.5 -69.4,1021.4 -70.6,1040.8 -57.5,1057.6 
			-67.5,1075.7 -85.6,1091.3 -116.2,1116.3 -115,1128.2 -108.7,1138.2 -72.5,1138.2 -62.5,1143.2 -45,1178.2 -21.3,1193.2 
			-11.9,1216.9 8.1,1250.6 15,1259.4 34.3,1268.7 46.2,1271.2 54.9,1285 68.7,1328.1 71.8,1317.5 96.8,1320.6 133,1358.7 
			153,1381.2 164.3,1358.1 166.8,1336.8 183,1344.9 191.1,1340 208,1329.3 211.1,1299.3 222.3,1282.5 234.2,1282.5 261.1,1260 
			271.7,1245.6 269.2,1228.8 275.4,1208.2 267.9,1201.3 253.6,1191.9 		"/>
		<polygon id="HC" data-title="Hlohovec" class="red" points="279.8,682.2 275.4,696.6 267.9,700.3 251.1,682.2 244.2,710.9 237.3,714.7 219.2,722.8 203.6,710.9
			203,712.2 208.6,725.3 203,712.2 194.2,733.4 194.2,745.3 203.6,755.9 220.5,766.5 211.7,783.4 211.7,810.9 194.2,825.3 
			216.7,839 224.8,857.7 232.3,846.5 243,856.5 258.6,856.5 264.2,839 270.4,839 287.9,853.4 289.2,849 364.1,741.5 342.3,714.7 
			323.5,700.3 304.8,682.8 304.2,682.2 		"/>
		<polygon id="SE" data-title="Senica" class="red" points="3.1,641 15,621.6 45.6,621.6 62.4,621.6 79.3,608.5 95.5,588.5 103,577.9 112.4,561 106.2,551
			101.8,527.9 88.7,503.6 89.3,483 101.8,469.8 101.8,453 89.3,439.9 76.8,433 63.7,428 63.7,419.2 54.9,408.6 31.2,424.9 
			23.7,414.2 7.5,431.7 -8.8,454.2 -49.4,454.2 -55,471.1 -86.8,471.1 -95.6,487.3 -107.5,494.8 -116.2,471.1 -138.7,478 
			-164.9,478 -184.9,487.3 -213,487.3 -229.3,490.4 -229.3,512.3 -236.8,524.2 -249.3,556 -253,583.5 -248,617.2 -219.3,606.6 
			-203.7,601.6 -188,596 -160.6,602.3 -142.4,616 -86.2,609.8 -68.1,587.9 -37.5,572.3 -10.6,530.4 15,554.8 15,574.8 -11.3,602.3 
			-45.6,629.1 -16.3,662.8 -4.4,654.1 		"/>
		<polygon id="SI" data-title="Skalica" class="red" points="-184.9,487.3 -164.9,478 -138.7,478 -116.2,471.1 -107.5,494.8 -95.6,487.3 -86.8,471.1 -55,471.1
			-49.4,454.2 -8.8,454.2 7.5,431.7 23.7,414.2 23.7,414.2 46.2,398.6 46.2,383.6 21.2,379.9 -1.3,353.7 -38.7,328 -64.4,311.8 
			-93.7,338.7 -125.6,348.7 -125.6,368.6 -133.7,379.3 -141.2,389.9 -170.5,409.2 -180.5,419.2 -193,436.7 -193,447.3 -206.2,455.5 
			-206.2,470.5 -229.3,489.8 -229.3,490.4 -213,487.3 		"/>
		<polygon id="PN" data-title="Piešťany" class="red" points="144.3,579.1 139.9,601.6 133.6,601.6 128.7,608.5 128.7,617.2 139.9,617.2 171.8,661 161.8,670.3
			179.9,682.2 194.2,691 203,712.2 203.6,710.9 219.2,722.8 237.3,714.7 244.2,710.9 251.1,682.2 267.9,700.3 275.4,696.6 
			279.8,682.2 304.2,682.2 317.3,652.2 332.9,632.9 342.3,621.6 359.8,627.2 384.8,627.2 391,613.5 374.1,591.6 334.8,581 
			311.7,574.8 301.1,556.7 294.8,571.6 269.2,569.2 246.1,554.2 236.7,524.2 203.6,541 174.9,525.4 168,557.9 141.1,552.3 
			138.6,563.5 		"/>
		<polygon id="TT" data-title="Trnava" class="red" points="98,923.3 119.3,906.5 152.4,906.5 166.8,890.2 182.4,890.2 182.4,868.4 209.9,856.5 218,868.4
			224.8,857.7 216.7,839 194.2,825.9 211.7,810.9 211.7,783.4 220.5,766.5 203.6,755.9 194.2,745.3 194.2,733.4 203,712.2 
			194.2,691 179.9,682.2 161.8,670.3 171.8,661 140.5,617.9 128.7,617.9 128.7,608.5 133.6,601.6 140.5,601.6 144.3,579.1 
			138.6,563.5 141.1,552.3 131.2,550.4 112.4,561 112.4,561 103.7,577.9 95.5,588.5 79.3,608.5 62.4,621.6 45.6,621.6 15.6,621.6 
			3.1,641 -4.4,654.1 -15.6,662.8 -10.6,668.5 -21.9,688.5 -42.5,699.1 -37.5,710.9 -34.4,719.1 -13.1,720.3 6.8,733.4 10,750.9 
			33.1,797.8 43.7,797.8 54.9,822.1 38.1,844 46.2,856.5 68.7,889 68.1,890.2 79.3,890.2 		"/>
		<polygon id="GA" data-title="Galanta" class="red" points="264.2,839 258.6,856.5 243,856.5 232.3,846.5 224.8,857.7 218,868.4 209.9,856.5 182.4,868.4
			182.4,890.2 166.8,890.2 151.8,906.5 119.3,906.5 98,922.7 79.3,890.2 68.1,890.2 45,922.7 68.7,942.1 58.1,957 71.8,976.4 
			63.7,987 42.5,987 27.5,1001.4 41.2,1020.1 46.8,1033.9 61.2,1033.9 76.8,1033.9 68.7,1048.2 87.4,1048.2 98,1057 113.7,1048.2 
			124.3,1057 118,1065.1 132.4,1065.1 146.8,1072 146.8,1087.6 161.1,1098.2 174.3,1098.2 196.7,1112.6 206.1,1131.3 221.7,1154.4 
			253.6,1191.9 267.9,1201.3 268.6,1198.8 276.1,1186.3 271.1,1150.1 279.2,1121.3 261.1,1112.6 256.1,1095.7 244.8,1096.3 
			231.7,1097 251.7,1073.9 213.6,1023.3 226.7,1015.8 246.7,1023.3 260.5,1008.3 246.1,984.5 256.7,984.5 266.1,994.5 296.1,973.9 
			278.6,953.9 281.7,930.2 296.1,902.7 274.2,894.6 287.9,853.4 270.4,839 		"/>
	</g>
</g>
<text transform="matrix(1 0 0 1 123.3416 985.0141)" class="st0 st1 st2">GA</text>
<text transform="matrix(1 0 0 1 60.8747 757.022)" class="st0 st1 st2">TT</text>
<text transform="matrix(1 0 0 1 232.6514 778.8871)" class="st0 st1 st2">HC</text>
<text transform="matrix(1 0 0 1 206.1046 628.9708)" class="st0 st1 st2">PN</text>
<text transform="matrix(1 0 0 1 -184.2946 554.0179)" class="st0 st1 st2">SE</text>
<text transform="matrix(1 0 0 1 -110.9003 411.9117)" class="st0 st1 st2">SI</text>
<text transform="matrix(1 0 0 1 62.4398 1183.3375)" class="st0 st1 st2">DS</text>
</svg>
