<?xml version="1.0" encoding="utf-8"?>
<!-- Generator: Adobe Illustrator 19.0.0, SVG Export Plug-In . SVG Version: 6.00 Build 0)  -->
<svg class="bratislavsky-kraj" version="1.1" id="svgMap" xmlns="http://www.w3.org/2000/svg" xmlns:xlink="http://www.w3.org/1999/xlink" x="0px" y="0px"
	 viewBox="0.5 656.4 65.6 94.6" style="enable-background:new 0.5 656.4 65.6 94.6;" xml:space="preserve">
<g id="bratislava">
	<g>
		<polygon id="PK" data-title="Pezinok" points="43.4,688.7 42.5,690.6 42.5,692.6 40.9,694.2 40.9,695.7 36.6,695.7 35.4,698.1 35,700.2 35.4,701.3
			34.4,702.2 33.5,705.3 31.5,705.3 30.3,707.2 31.4,709.9 30.3,712.6 28.9,714.5 28.2,714.5 28.8,715.4 30.8,715.4 32.1,716.8
			33.1,718.1 35.8,720.6 37,722 38.3,721.2 37.6,720.5 36.8,718.9 37.6,718.1 39.7,717.7 41.7,717.2 44.1,717.7 46.1,717.7
			48.7,716.2 49.5,714.4 50.1,711.8 51.6,712.7 53.7,711.7 54.1,711 54.9,709.9 57.6,711.7 62,708.6 60.7,706.6 63.4,703.1
			61.6,699.2 59.9,699.2 56.2,691.7 55.7,688.9 53.8,687.6 52.5,686.8 49,686.6 48.5,685.3 45.3,689.2 		"/>
		<polygon id="BA" data-title="Bratislava" points="33.1,745.8 31.5,744.8 30.8,743.2 32.3,741.5 33.6,739 34.2,736.7 36.2,735.8 38.4,736.7 40,737.7
			40.7,736.4 40.5,734.2 37.6,732.6 36.2,730 36.2,727.3 36.2,723.6 36.8,722.1 37,722 35.8,720.6 33.1,718.1 32.1,716.8
			30.8,715.4 28.8,715.4 28.2,714.5 25.2,714.5 23.2,713.9 22,715.4 21.2,714.7 19.4,713.8 19.1,713.2 16.2,713.2 13.1,711.8
			12.4,711 10.8,710.5 9.2,713.2 11,724 15.4,729.5 18.7,729.6 21.5,736.8 19.9,737.6 19.9,741.6 18.9,742.9 19.9,744.2 18.1,746.4
			20.2,748.2 21.9,747 24.8,748.4 26.6,751 29.9,749.5 36,750.2 36.7,749.6 34.8,748.1 		"/>
		<polygon id="SC" data-title="Senec" points="63.9,724.7 65.6,722.3 61.8,719.2 65.6,713.8 62,708.6 57.6,711.7 54.9,709.9 54.1,711 53.7,711.7
			51.6,712.7 50.1,711.8 49.5,714.4 48.7,716.2 46.1,717.7 44.1,717.7 41.7,717.2 39.7,717.7 37.6,718.1 36.8,718.9 37.6,720.5
			38.3,721.2 37,722 37.5,722.7 37,722 36.8,722.1 36.2,723.6 36.2,727.3 36.2,730 37.6,732.6 40.5,734.2 40.7,736.4 40,737.7
			38.4,736.7 36.2,735.8 34.2,736.7 33.6,739 32.3,741.5 30.8,743.2 31.5,744.8 33.1,745.8 34.8,748.1 36.7,749.6 40.9,746.2
			43.8,743.7 45.4,740.8 43.3,738.1 43.5,735 46.1,736.3 51.2,733.8 50.9,729.1 53.5,728.9 57,733.8 61.4,729.5 64.8,729.5
			66.1,727.8 		"/>
		<polyline id="MA" data-title="Malacky" points="28.2,714.5 28.9,714.5 30.3,712.6 31.4,709.9 30.3,707.2 31.5,705.3 33.5,705.3 34.4,702.2 35.4,701.3
			35,700.2 35.4,698.1 36.6,695.7 40.9,695.7 40.9,694.2 42.5,692.6 42.5,690.6 43.4,688.7 45.3,689.2 48.5,685.3 47.8,683.4
			51.1,681.7 52.9,678.5 49.9,675.1 47.3,672.2 52.8,667.9 57,663.5 57,660.3 52.9,656.4 48.6,663.1 43.7,665.6 40.8,669.1
			31.8,670.1 28.9,667.9 24.5,666.9 21.5,668 17.4,669.4 14.9,670.3 11.7,672.2 10.4,673.7 9.2,675.4 3.5,681.2 2.6,685 3.4,686.6
			1.8,691.3 0.5,693 1.2,696.5 4.2,699.3 6.8,700.7 4.6,702.9 7.6,709.6 9.9,709.3 10.9,710.3 10.8,710.5 12.4,711 13.1,711.8
			16.2,713.2 19.1,713.2 19.4,713.8 21.2,714.7 22,715.4 23.2,713.9 25.2,714.5 28.2,714.5 		"/>
	</g>
</g>
</svg>
