<?xml version="1.0" encoding="utf-8"?>
<!-- Generator: Adobe Illustrator 19.0.0, SVG Export Plug-In . SVG Version: 6.00 Build 0)  -->
<svg class="kosicky-kraj" version="1.1" id="svgMap" xmlns="http://www.w3.org/2000/svg" xmlns:xlink="http://www.w3.org/1999/xlink" x="0px" y="0px"
	 viewBox="336.4 627.9 216.9 106.4" style="enable-background:new 336.4 627.9 216.9 106.4;" xml:space="preserve">
<g id="kosice">
	<g>
		<path id="RV" data-title="Rožňava" d="M369.8,660.4l-1.5-2.3h-2.1l-2.6-3.3l-1.9-2.2l-5.3-2.1l2.3-2.3l-0.7-5.1l-1.5-2.7h-3.7l-3.5,2.4l-2,4.2l-2.3-1.1
			l-2.3,4.9l-3.8,8.7l-2.3,4.5l-0.2,3.9l8.5,8l1.1,9.8l5.5,2.6l-2.4,8.3l-3,3.5l0.4,3l1.7,3.6l4.8,1.7l4.6-0.9l4.1,1.1l2.9-2.3
			l1-1.8l1.3-4.5h1.3l2.6-2.9l2.3,1.5l13.3-3.9l8.4-1.1l0.5-2.5c0,0,0.3-1.9,0.8-2.6c0.5-0.8,3.1-2.9,3.1-2.9l-2.3-4.5l-2.6-1.1
			l-3.1-1.4v-0.4l-2.3,1.8l-3.9-1.8l-3.3-4.8l1.3-3.5l-3.6-4.2l-2.3,2l-3.6-2l-2.6-3.6L369.8,660.4"/>
		<polygon id="SN" data-title="Spišská Nová Ves" points="358,643.1 358.8,648.2 356.5,650.6 361.8,652.6 363.7,654.8 366.3,658.1 368.3,658.1 369.8,660.4
			371.8,658.1 375.5,652.4 377.1,647.2 381.2,645.2 383.8,645.2 383.8,650.8 390,651.6 393.6,653.7 401.4,652.6 406.3,651.6
			409.3,648 409.3,645.2 407.6,643.1 407.6,640.4 407.6,636.9 406.3,636.4 402.1,634.8 400.1,630.6 397.4,630.6 396.4,634.8
			393.2,635.8 391.4,633.6 388,634.1 386.2,636.8 383.3,637.3 379.8,633.3 376.6,632.9 371.4,627.9 367.4,632.6 363.7,628.7
			353.8,633.1 349.9,637.1 352.8,640.4 356.5,640.4 		"/>
		<path id="KS" data-title="Košice-okolie" d="M391.3,678.3v0.4l3.1,1.4l2.6,1.1l2.3,4.5c0,0-2.6,2.1-3.1,2.9s-0.8,2.6-0.8,2.6l-0.5,2.5l5.6-0.7l0.9,3.9
			l4.9-0.3l5.3,7l5.7-3.5l8.2,5v3.5h2.6l4.1-4.3l6.7-2.3l3.3,1l3.7,1.3l2.3-4.3h8.5v-4l9,3.5l0.8-1.4l1.5-2.8v-2.6l2.7-1.5l1.7,1.5
			v-1.6l-3.3-6.5V670l2.4-5.6l-0.3-0.8l-5.5-12.4l-9.1,0.2l-1.7,5.7l-5.2,1l-2.7,2.4h-3.5l-2-5.2l2-2.7l-7.9-1.7l-3.2-4H424v2.6v3.9
			v5.7l-4.5,6.2l-4-1.3l-3.9,3.8l-7.7-3.8l-2.5,3.8l-1.9,2.2h-5.9l-2.3,3.5L391.3,678.3"/>
		<polygon id="GL" data-title="Gelnica" points="407.6,643.1 409.3,645.2 409.3,648 406.3,651.6 401.4,652.6 393.6,653.7 390,651.6 383.8,650.8
			383.8,645.2 381.2,645.2 377.1,647.2 375.5,652.4 371.8,658.1 369.8,660.4 370.9,662.2 373.5,665.8 377.1,667.8 379.4,665.8
			383,670 381.7,673.5 385.1,678.3 388.9,680 391.3,678.3 391.3,673.5 393.6,670 399.5,670 401.4,667.8 403.9,664 411.6,667.8
			415.5,664 419.5,665.2 424,659.1 424,653.4 424,649.5 424,647 420.9,647 416.2,637.1 412.7,638.8 407.6,636.9 407.6,640.4 		"/>
		<polygon id="TV" data-title="Trebišov" points="521.9,712.1 518.5,708.4 513.7,708.4 502.8,708.4 498.7,716.3 496.1,712.1 496.1,706.7 497.3,705.2
			496.1,702.1 496.1,699.9 494.6,695.1 494.6,687.9 492.7,685.6 490.7,681.1 488.6,677.6 488.6,675.7 490.7,674 492.7,672.2
			491.3,667.7 487,670 471.4,664.4 469.1,670 469.1,684.6 472.4,691.1 472.4,692.6 470.7,691.1 468,692.6 468,695.1 466.5,698
			465.6,699.4 467,699.9 468.3,704.9 475.5,707.2 478.4,716.3 481.9,725.8 485.8,731.2 492.7,734.3 497.3,734.3 497.3,731.2
			502.5,730.9 507.9,729.6 513.7,728.4 518.5,727.6 524.4,729.1 528.7,727.3 527.5,721 528.2,717.3 526.2,716.3 		"/>
		<polygon id="SO" data-title="Sobrance" points="553.3,658.1 550.8,656.4 542.1,654.8 539.2,647.2 536,647.5 534.2,648.8 531.3,651.1 533.2,654.8
			532.4,658.1 529.8,663.7 522.9,670 524.9,673 521.9,674.8 524.4,685.6 527,688.9 527,693.3 528.7,696.9 531.2,699.8 534.2,692.8
			537.8,693.8 540.1,690.2 545.3,685.6 549.2,683.5 552,677.9 549.2,673.2 553.3,667.8 		"/>
		<polygon id="MI" data-title="Michalovce" points="527,693.3 527,688.9 524.4,685.6 521.9,674.8 524.9,673 522.9,670 529.8,663.7 532.4,658.1 533.2,654.8
			531.3,651.1 529,652.9 529,660.5 516.2,658.1 512.4,658.1 510,654.8 504.5,651.7 497.3,651.4 495.6,647 496.4,665 491.3,667.7
			492.7,672.2 490.7,674 488.6,675.7 488.6,677.6 490.7,681.1 492.7,685.6 494.6,687.9 494.6,695.1 496.1,699.9 496.1,702.1
			497.3,705.2 496.1,706.7 496.1,712.1 498.7,716.3 502.8,708.4 513.7,708.4 518.5,708.4 521.9,712.1 526.2,716.3 528.2,717.3
			531.1,699.9 531.2,699.8 528.7,696.9 		"/>
	</g>
	<polygon id="KE" data-title="Košice" points="433.1,658.5 431.8,659.5 431.8,661.4 431.8,664.4 429.6,664.4 428.7,667.8 430.9,667.8 433.1,670
		433.1,673.5 435.9,676.7 434.9,680 434,682.1 432.3,683.5 431.8,682.1 430.3,682.1 428.7,683.5 428.7,685.6 428.7,687.4
		432.3,688.6 432.3,691.4 434.2,694.2 435.9,696.3 438.4,696.3 439.4,693.7 438.4,690.9 438.4,686.7 439.4,685.6 442.9,685.6
		447.5,685.6 451.9,687 451.9,683.7 450.2,682.1 450.2,678.8 450.2,676.5 448.7,674.4 448.7,671.1 447.8,670 447.1,667.8
		446.1,664.4 445.9,663.2 443.1,664.4 441,664.4 439.4,664.4 437.3,662 435.9,660.5 434.5,658.5 	"/>
</g>
</svg>
