<?xml version="1.0" encoding="utf-8"?>
<!-- Generator: Adobe Illustrator 19.0.0, SVG Export Plug-In . SVG Version: 6.00 Build 0)  -->
<svg class="nitriansky-kraj" version="1.1" id="svgMap" xmlns="http://www.w3.org/2000/svg" xmlns:xlink="http://www.w3.org/1999/xlink" x="0px" y="0px"
	 viewBox="79.1 653 141.1 148.3" style="enable-background:new 79.1 653 141.1 148.3;" xml:space="preserve">
<g id="nitra">
	<polygon id="KN" data-title="Komárno" points="162,795.8 161,791.1 158.6,790.3 156.3,787.6 154,785.7 151.7,783.8 149.8,782.5 145.4,781.9 145.4,778.9
		145.4,773.4 142.2,771.9 140.1,773.4 137.6,771.9 132.1,767.7 125.3,768.6 125.3,765.8 121.5,765 119,766.9 115.4,766.9 111,766.9
		112.9,765.8 111.6,762.3 107.2,763.6 106.6,763.8 102,762 100.4,762 97.7,761.2 97.5,763.8 98.7,764.9 97.7,768.2 98.1,770.9
		96.4,773.2 92.1,776.8 90.2,776.8 88.4,779.5 87.9,784.3 83.9,786.8 81.3,785.5 80.9,788.9 79.1,792.6 85.7,796.4 90.6,796.4
		92.9,796.4 96.2,797.2 100.7,796.2 104.5,794.9 106.4,797.2 110.4,794.9 113.9,796.4 117.2,797.2 121.5,798.7 125.1,799.8
		128.7,799.8 132.9,801.3 135.4,801.3 138.8,801.3 143,801.3 147.5,801.3 152.1,799.4 154.2,798.5 157.2,800.2 158.4,800
		158.2,794.3 	"/>
	<polygon id="TO" data-title="Topoľčany" points="116.5,691 118,691 119.8,691 122.7,693.9 122.7,695.5 124.3,696.6 127.2,697.7 130.2,694.7 133.9,695.5
		135.6,697 137.3,694.7 139.8,694 142.5,691 144.5,689.4 146,689.4 148.5,687.6 147.9,687.2 146.6,682.4 141.3,679.4 139.7,676.7
		144.3,671.3 142.4,667.8 135.2,665.1 131.7,657.2 121.1,653 119,655.4 121.5,665.1 119.4,667.3 117.2,669.7 116.2,671.9
		112.2,671.9 109.4,671 105.4,675.9 103.3,680.7 106.4,683.6 109.4,685.9 112.9,690.2 112.3,691 114.6,691 	"/>
	<polygon id="ZM" data-title="Zlaté Moravce" points="144.5,689.4 142.5,691 139.8,694 137.3,694.7 135.6,697 135.8,697.2 139.3,701.1 141,703.1 142,705.8
		142,710 139.3,712.3 141.8,714.3 142.6,714.3 144,716 145.1,716 145.1,718.4 147.4,718.4 150,719.2 149,720.5 150,722.1
		155.1,723.6 154.2,721.7 157.2,720.2 162,723.4 160.9,720.2 162.9,719.2 162.9,714 165.6,715 168.4,714.3 169.4,712.3 173.2,709.8
		172.3,706.8 170,701.1 168.3,696.7 171.9,690.4 169.6,687.2 165,689.4 168.1,685.3 165.4,682.4 155.2,687.6 151.7,689.4
		148.5,687.6 146,689.4 	"/>
	<polygon id="NR" data-title="Nitra" points="105.4,717.7 107.2,720.4 112.3,723.1 113.6,726.1 112.9,729.1 110.9,731.4 112.6,735.1 112.9,734.8
		117.3,738 120.6,735.7 127.4,731.9 131,730.7 132.3,732.5 131,734.8 132.9,736.3 137.6,734.8 137.6,730.7 141.8,733.4 143.2,734.8
		147.4,735.6 149.2,733 147.7,729.8 151.2,730.7 153.2,729.8 157.2,727.9 155.1,723.6 150,722.1 149,720.5 150,719.2 147.4,718.4
		145.1,718.4 145.1,716 144,716 142.6,714.3 141.8,714.3 139.3,712.3 142,710 142,705.8 141,703.1 139.3,701.1 135.8,697.2
		135.6,697 135.6,697 135.6,697 133.9,695.5 130.2,694.7 127.2,697.7 124.3,696.6 122.7,695.5 122.7,693.9 119.8,691 118,691
		116.5,691 114.6,691 112.3,691 100.9,707.4 98.5,714.7 102,716 101.3,717.3 103.2,717.7 	"/>
	<path id="LV" data-title="Levice" d="M199.4,721.3l-2.2-2.9l-1.1-6.7l-3.4-3.1l-1.9-2.8H190l0,0l0,0h-3.7l-2.3,2.8l-1.5,4.1l-2.7,1.5l-2.7-1.1h-3.4
		l-2.3,0.6l-2.7,3.8l-0.8-2.2l0.5-1.1l-2.8,0.7l-2.7-1v5.3l-2,1l1.1,3.2l-4.8-3.2l-3,1.5l0.9,1.9l0,0l0,0l2.1,4.3l-4,1.8l-2,1
		l-3.4-1l1.4,3.2l-1.8,2.7l0.3,0.1v2.3l2.3,1.3l1.3,3l6.1,2.1l0.2,4l-1.7,2.6h-1.3l1.5,5.6l-1.5,1.5l3,3.2l-1.7,1.2l1.1,2.7
		l-1.1,2.1v4l8,2.3l1.9-1.3l4.6,1.3l2.3-1.3l4,2.5l2.5-2.5l3.8,1.5h4.8l-0.8-2.1l-0.6-1.9c1.3-1.3,3.8-1.3,3.8-1.3h1.7l0.8-2.7v-5.1
		l2.1-1h4.4h2.7l5.5-1.1l2.5,0.8l2.7-3.2l1.1-2.7l2.1-2.3l2.3-1.6v-3v-2.1l2.1-3.2l-1.5-3.6h-0.2l-0.9,1.6l0.9-1.6h-3.4l-6.5,3.4
		l-3.2,1.7l-2.5,0.8l-6.3-3.6l-3,1.7l-0.8-4l3.6-2.1l-2.1-4.4l1.7-2.4l3.2-3.1l0.6-3.8L199.4,721.3"/>
	<polygon id="SA" data-title="Šaľa" points="102,762 106.6,763.8 107.2,763.6 108.2,761.2 110.6,758.9 112.9,755.5 110.4,751 110.4,747.9 111,744.5
		112.9,741.4 109.3,739.3 110.4,737.4 112.6,735.1 110.9,731.4 112.9,729.1 113.6,726.1 112.3,723.1 107.2,720.4 105.4,717.7
		103.2,717.7 101.3,717.3 99.7,720.4 99.2,724.2 102,727.4 97.2,730.7 95.7,729.1 94,729.1 96.3,732.9 94.1,735.3 90.9,734.1
		88.8,735.3 94.9,743.4 91.7,747.1 95.6,746.9 96.4,749.6 99.3,751 98,755.6 97.7,761.2 100.4,762 	"/>
	<polygon id="NZ" data-title="Nové Zámky" points="179.3,772.4 176.8,774.9 172.8,772.4 170.4,773.6 165.8,772.4 163.9,773.6 155.9,771.3 155.9,767.3
		156.9,765.2 155.9,762.5 157.6,761.2 154.6,758 156.1,756.6 154.6,751 155.9,751 157.6,748.3 157.4,744.3 151.3,742.2 150,739.3
		147.7,738 147.7,735.7 147.4,735.6 146.3,737.1 147.4,735.6 143.2,734.8 141.8,733.4 137.6,730.7 137.6,734.8 132.9,736.3
		131,734.8 132.3,732.5 131,730.7 127.4,731.9 120.6,735.7 117.3,738 112.9,734.8 112.6,735.1 110.4,737.4 109.3,739.3 112.9,741.4
		111,744.5 110.4,747.9 110.4,751 112.9,755.5 110.6,758.9 108.2,761.2 107.2,763.6 111.6,762.3 112.9,765.8 111,766.9 115.4,766.9
		119,766.9 121.5,765 125.3,765.8 125.3,768.6 132.1,767.7 137.6,771.9 140.1,773.4 142.2,771.9 145.4,773.4 145.4,778.9
		145.4,781.9 149.8,782.5 151.7,783.8 154,785.7 156.3,787.6 158.6,790.3 161,791.1 162,795.8 158.2,794.3 158.4,800 160.7,799.6
		166.2,799.4 170.2,801.3 174,801.3 177.4,800 179.9,796.9 182.2,793.7 186,792.6 188.8,792.6 192.8,794.3 192.8,792.6 191.7,791.3
		190.7,788.8 188.8,786.5 185.8,784.6 185.6,780.2 186,778.1 188.2,774.7 187.8,773.8 183.1,773.8 	"/>
</g>
</svg>
