<?xml version="1.0" encoding="utf-8"?>
<!-- Generator: Adobe Illustrator 19.0.0, SVG Export Plug-In . SVG Version: 6.00 Build 0)  -->
<svg class="presovsky-kraj" version="1.1" id="svgMap" xmlns="http://www.w3.org/2000/svg" xmlns:xlink="http://www.w3.org/1999/xlink" x="0px" y="0px"
	 viewBox="309 563.3 263.1 106.7" style="enable-background:new 309 563.3 263.1 106.7;" xml:space="preserve">
<g id="presov">
	<g>
		<polygon points="497.1,640.4 495.6,637.3 494.6,631.9 492.7,627.6 494.6,626.4 494.6,618.7 493.9,616.8 493.9,616.8 494.6,618.7
			494.6,626.3 492.7,627.6 494.6,631.9 495.6,637.3 497.1,640.4 495.6,646.9 497.3,651.4 495.6,647 		"/>
		<polygon points="465.4,624.1 465.4,624.1 464.1,622.5 464.1,622.5 		"/>
		<polygon points="478.8,620.2 480.9,626.1 480.9,626.1 		"/>
		<polygon points="463.6,640.4 463.6,640.4 459.4,635.4 459.4,635.4 		"/>
		<polygon points="499.3,579.9 497.2,575.9 496.4,578.9 497.4,581.1 		"/>
		<polygon id="KK" data-title="Kežmarok" points="348.8,585.1 353.1,585.1 354.7,590.3 354.7,593.8 357.8,595.2 357.8,600.3 359.1,602.4 356.5,604.5
			351.6,604.5 349,608.1 354.9,613.7 356.5,615.3 356.5,616.6 359.1,620.7 363.7,624 363.7,624.1 368.3,621.2 371.2,623.3
			374.3,619.4 380.4,619.4 386.6,619.4 385.3,615.5 390,613.7 393.6,611.4 395.9,613.7 396.9,611.4 398,608.8 400.5,607
			400.5,605.2 397.7,599.8 397.4,599.7 396.9,600.9 397.4,599.7 391,597.8 388.9,595.4 387.7,593.8 385.1,591.8 376.3,593.8
			372.5,591.8 373.5,587.1 372.5,580.2 363.7,584.9 361.8,581.5 363.7,579 365.8,574.2 366.8,571.5 365,569.3 363.5,571 361.8,568
			356.5,567.3 355.1,576.7 345,575.2 341.2,580.8 343.6,585.1 		"/>
		<polygon id="BJ" data-title="Bardejov" points="421.1,595.7 421.4,596.1 422.2,595.7 421.4,596.1 424,600.9 432,599.8 437.1,603.9 437.3,604.1
			448.1,610.6 449.7,611.2 450.1,611.8 454.9,614.8 457.2,614.8 462.4,612.9 465.7,610.6 471.1,614.8 472.4,612.9 466.9,606.5
			466.9,604.5 471.4,602.7 468.5,595.7 468,592.6 459.5,583.9 461.6,582.3 458,578.9 463.6,575.6 465.1,571.9 459.7,567.5 456,566
			448.8,563.3 442.2,572.5 435.7,566.8 427.3,570.2 431.8,576.4 426.6,576.4 420.9,582.4 422.1,585.6 419.5,586.1 421.1,589 		"/>
		<polygon points="443.5,609.1 448.1,610.6 437.3,604.1 		"/>
		<polygon points="451.5,614.8 454.9,614.8 450.1,611.8 		"/>
		<path id="SL" data-title="Stará Ľubovňa" d="M365.8,574.2l-2.1,4.7l-1.9,2.6l1.9,3.3l8.8-4.6l1,6.8l-1,4.8l3.9,1.9l8.8-1.9l2.6,1.9l1.3,1.7l2.1,2.3l6.4,2
			l0.4-0.8v-1.6l1.5-1.6h2.8l1.9,0.1l2.4,1.8l0.9,0.7l1-1l1-0.7c0,0-0.6,1,0,1.7c0.6,0.7,0.4-0.1,1,0.6s2.8,0.7,2.8,0.7h1.7
			c0,0,1.7-0.5,2.2-0.7c0.4-0.2,2-0.6,2-0.6l0.5-1.3l1.9-0.9l-0.2-0.4V589l-1.7-2.9l-4.8,0.9l-6.2-7.4l-2.2,1.7l-7.9-6.7l-0.7-6.7
			l-4.9-0.7l-4.9,2.5l-2.2-2.2l-4,4.9l-7.4-4.2l-5.7-2.7l-3.4,3.8l1.8,2.2L365.8,574.2z"/>
		<path id="SB" data-title="Sabinov" d="M432,599.8l-8,1l-2.6-4.7l-1.9,0.9l-0.5,1.3c0,0-1.6,0.4-2,0.6s-2.2,0.7-2.2,0.7H413c0,0-2.2,0-2.8-0.7
			c-0.6-0.7-0.4,0.1-1-0.6c-0.6-0.7,0-1.7,0-1.7l-1,0.7l-1,1l-0.9-0.7l-2.4-1.8l-1.9-0.1h-2.8l-1.5,1.6v1.6l-0.4,0.8l0.3,0.1
			l2.8,5.4v1.8l-2.6,1.8l-1.1,2.5l2.1,3.4l2.6,3h4.6l1.7,1.4l1.3-1.4l1.8,1.5l5.7-1.5l4.4,5.2l4.6,4.6l2.3-2.3l6.2-1.2l1.3-1.4
			l5.4-3.6l-1.8-5.4l-3.1-4.4l1.2-5.3l-0.2-0.2L432,599.8z"/>
		<polygon id="LE" data-title="Levoča" points="406.5,626.4 409.3,621.2 408.3,619.4 407.9,619.1 406.5,620.7 407.9,619.1 406.2,617.8 401.6,617.8
			399,614.8 396.9,611.4 395.9,613.7 393.6,611.4 390,613.7 385.3,615.5 386.6,619.4 380.4,619.4 374.3,619.4 371.2,623.3
			368.3,621.2 363.7,624.1 363.7,628.7 363.7,628.6 367.4,632.6 371.4,627.9 376.6,632.9 379.8,633.3 383.3,637.3 386.2,636.8
			388,634.1 391.4,633.6 393.2,635.8 396.4,634.8 397.4,630.6 400.1,630.6 402.1,634.8 406.3,636.4 406.5,630.6 		"/>
		<polygon points="495.7,611.4 492.7,613.7 493.9,616.8 498.7,608.5 498.7,607.4 		"/>
		<polygon id="HE" data-title="Humenné" points="528.3,645.4 520.3,643.9 518.5,640.4 522.9,635 526.9,633.6 526.9,628.7 530.6,625.8 529.8,621.5
			528.6,616.3 531.1,613.7 534.2,607.9 533,607.1 528.7,605.4 526.2,611.4 523.7,613.7 520.8,617.1 514.4,616.3 513.1,620.7
			510.5,619.9 505.9,618.7 502.5,616.8 498.7,611.4 498.7,608.5 493.9,616.8 494.6,618.7 494.6,626.4 492.7,627.6 494.6,631.9
			495.6,637.3 497.1,640.4 495.6,647 497.3,651.4 504.5,651.7 510,654.8 512.4,658.1 516.2,658.1 529,660.5 529,652.9 534.2,648.8
			530.9,643.9 		"/>
		<polygon id="SP" data-title="Stropkov" points="497.3,591.1 494.8,590.5 491.8,584.1 489.4,584.1 487.6,589 485.3,589 481.7,593.8 478.4,601.1
			476.9,605.4 475.5,611.4 478.4,614.8 477.4,618.7 478.8,620.2 478.8,620.2 478.8,620.2 480.9,626.1 484,627.6 486.6,625.8
			488.6,622 490.7,617.6 493.9,616.8 493.9,616.8 493.9,616.8 492.7,613.7 495.7,611.4 498.7,607.4 498.7,608.5 500.6,602.1
			502,595.7 505.9,592.6 499.3,579.9 497.4,581.1 496.4,578.9 494.6,585.7 		"/>
		<polygon id="SK" data-title="Svidník" points="458,578.9 461.6,582.3 459.5,583.9 468,592.6 468.5,595.7 471.4,602.7 466.9,604.5 466.9,606.5
			472.4,612.9 471.1,614.8 465.7,610.6 462.4,612.9 457.2,614.8 454.9,614.8 457.2,617.3 460.8,618.7 464.1,622.5 464.1,622.5
			464.1,622.5 465.4,622 470.8,624.1 473.7,622 475.2,620.7 475.2,616.3 477.4,618.7 477.4,618.7 478.4,614.8 475.5,611.4
			476.9,605.4 478.4,601.1 481.7,593.8 485.3,589 487.6,589 489.4,584.1 491.8,584.1 494.8,590.5 497.3,591.1 494.6,585.7
			496.4,578.9 495.6,577.2 490.9,572.5 488.7,572.5 483.2,567.5 479.5,569 477.6,567.5 473.8,570 472.6,571.2 470.9,569.3
			467.9,572 465.4,572.2 465.1,571.9 463.6,575.6 		"/>
		<polygon id="ML" data-title="Medzilaborce" points="502,595.7 500.6,602.1 498.7,608.5 498.7,611.4 502.5,616.8 505.9,618.7 510.5,619.9 513.1,620.7
			514.4,616.3 520.8,617.1 523.7,613.7 526.2,611.4 528.7,605.4 521.6,602.7 523.3,595.2 515.2,583.6 512.7,583.6 507.5,579.9
			503.8,577.2 499.3,579.9 505.9,592.6 		"/>
		<polyline id="VT" data-title="Vranov nad Topľou" points="477.4,618.7 475.2,616.3 475.2,620.7 473.7,622 470.9,624.1 465.4,622 464.1,622.5 465.4,624.1
			465.4,624.1 465.4,624.1 462.6,627.6 459.4,630.6 459.4,635.4 463.6,640.4 463.6,640.4 463.6,640.4 465.4,647 464.8,651.6
			464.9,651.6 468.1,656.8 471.4,664.4 487,670 491.2,667.7 496.4,665 496.4,651.4 497.3,651.4 495.6,646.9 497.1,640.4
			495.6,637.3 494.6,631.9 492.7,627.6 494.6,626.3 494.6,618.7 493.9,616.8 490.7,617.6 488.6,622 486.6,625.8 484,627.6
			480.9,626.1 480.9,626.1 480.9,626.1 478.8,620.2 477.4,618.7 477.4,618.7 		"/>
		<polygon points="477.4,618.7 477.4,618.7 478.8,620.2 478.8,620.2 		"/>
		<polygon points="477.4,618.7 477.4,618.7 478.8,620.2 478.8,620.2 		"/>
		<polygon points="490.7,617.6 488.6,622 486.6,625.8 484,627.6 480.9,626.1 480.9,626.1 484,627.6 486.6,625.8 488.6,622
			490.7,617.6 493.9,616.8 493.9,616.8 		"/>
		<polygon points="490.7,617.6 488.6,622 486.6,625.8 484,627.6 480.9,626.1 480.9,626.1 484,627.6 486.6,625.8 488.6,622
			490.7,617.6 493.9,616.8 493.9,616.8 		"/>
		<ellipse cx="477.4" cy="618.7" rx="0" ry="0"/>
		<ellipse cx="477.4" cy="618.7" rx="0" ry="0"/>
		<polygon points="475.2,616.3 475.2,620.7 473.7,622 470.8,624.1 465.4,622 464.1,622.5 464.1,622.5 465.4,622 470.9,624.1
			473.7,622 475.2,620.7 475.2,616.3 477.4,618.7 477.4,618.7 		"/>
		<polygon points="475.2,616.3 475.2,620.7 473.7,622 470.8,624.1 465.4,622 464.1,622.5 464.1,622.5 465.4,622 470.9,624.1
			473.7,622 475.2,620.7 475.2,616.3 477.4,618.7 477.4,618.7 		"/>
		<polygon id="SV" data-title="Snina" points="570.4,623.4 566.6,624.9 560,622 554.3,615 551.8,615.5 548.6,617 539.7,613.7 541.6,609.3 539.7,607.4
			536.9,609.6 534.2,607.9 531.1,613.7 528.6,616.3 529.8,621.5 530.6,625.8 526.9,628.7 526.9,633.6 522.9,635 518.5,640.4
			520.3,643.9 528.3,645.4 530.9,643.9 534.2,648.8 536,647.5 539.2,647.2 542.1,654.8 550.8,656.4 556.5,655.3 560.2,643.7
			564.9,637.6 569.4,637.1 570.4,634.8 572.1,624.9 		"/>
		<polyline id="PO" data-title="Prešov" points="464.1,622.5 460.8,618.7 457.2,617.3 454.9,614.8 451.5,614.8 450.1,611.8 448.1,610.6 443.5,609.1
			437.3,604.1 436.1,609.4 439.2,613.7 441,619.1 435.6,622.7 434.3,624.1 428.1,625.3 425.8,627.6 421.1,623 416.8,617.8
			411.1,619.2 409.3,617.8 407.9,619.1 408.3,619.4 409.3,621.2 406.5,626.4 406.5,630.6 406.3,636.4 412.7,638.8 416.2,637.1
			420.9,647 432.3,647 435.5,650.9 443.4,652.6 441.4,655.3 443.4,660.5 446.9,660.5 449.6,658.1 454.8,657.1 456.5,651.4
			464.8,651.7 464.8,651.6 464.8,651.6 465.4,646.9 463.6,640.4 459.4,635.4 459.4,635.4 459.4,635.4 459.4,630.6 462.6,627.6
			465.4,624.1 464.1,622.5 		"/>
		<polygon points="448.1,610.6 450.1,611.8 449.7,611.2 		"/>
		<polygon points="448.1,610.6 450.1,611.8 449.7,611.2 		"/>
		<polygon points="448.1,610.6 450.1,611.8 449.7,611.2 		"/>
		<polygon points="459.4,630.6 459.4,635.4 459.4,635.4 459.4,630.6 462.6,627.6 465.4,624.1 465.4,624.1 462.6,627.6 		"/>
		<polygon points="459.4,630.6 459.4,635.4 459.4,635.4 459.4,630.6 462.6,627.6 465.4,624.1 465.4,624.1 462.6,627.6 		"/>
		<polygon points="463.6,640.4 463.6,640.4 465.4,646.9 464.8,651.6 464.8,651.6 465.4,647 		"/>
		<polygon points="463.6,640.4 463.6,640.4 465.4,646.9 464.8,651.6 464.8,651.6 465.4,647 		"/>
		<polygon id="PP" data-title="Poprad" points="363.7,624 359.1,620.7 356.5,616.6 356.5,615.3 354.9,613.7 349,608.1 351.6,604.5 356.5,604.5
			359.1,602.4 357.8,600.3 357.8,595.2 354.7,593.8 354.7,590.3 353.1,585.1 348.8,585.1 343.6,585.1 341.2,580.8 340.7,581.6
			338.5,578.9 331.8,591.5 331.1,598.9 320.9,591.5 316,590.5 313.2,593.8 309,595.2 312,601.4 311,604.5 313.2,606.9 313.2,604.5
			317.7,606.4 318.7,608.7 320.7,608.7 325.6,611.1 321.7,623.4 317.7,624.4 323.5,635.3 325.6,636.3 319.6,640.4 324.8,641.7
			329.8,642.1 333.5,642.1 336.5,641.3 341.1,643.9 347.4,647 349.4,642.7 352.8,640.4 349.9,637.1 353.8,633.1 363.7,628.7
			363.7,624.1 		"/>
	</g>
</g>
</svg>
