<?xml version="1.0" encoding="utf-8"?>
<!-- Generator: Adobe Illustrator 19.0.0, SVG Export Plug-In . SVG Version: 6.00 Build 0)  -->
<svg class="trnavsky-kraj" version="1.1" id="svgMap" xmlns="http://www.w3.org/2000/svg" xmlns:xlink="http://www.w3.org/1999/xlink" x="0px" y="0px"
	 viewBox="14.1 621.4 103.1 171.2" style="enable-background:new 14.1 621.4 103.1 171.2;" xml:space="preserve">
<g id="trnava">
	<g>
		<polygon id="DS" data-title="Dunajská Streda" points="90.1,756.3 87.6,752.6 86.1,749.6 82.5,747.3 80.4,747.3 78.1,745.6 78.1,743.1 75.8,742 73.5,742
			74.5,740.7 72.8,739.3 70.3,740.7 68.6,739.3 65.6,739.3 66.9,737 64.4,737 62.1,737 61.2,734.8 59,731.8 57,733.8 53.5,728.9
			50.9,729.1 51.2,733.8 46.1,736.3 43.5,735 43.3,738.1 45.4,740.8 43.8,743.7 40.9,746.2 36,750.2 36.2,752.1 37.2,753.7
			43,753.7 44.6,754.5 47.4,760.1 51.2,762.5 52.7,766.3 55.9,771.7 57,773.1 60.1,774.6 62,775 63.4,777.2 65.6,784.1 66.1,782.4
			70.1,782.9 75.9,789 79.1,792.6 80.9,788.9 81.3,785.5 83.9,786.8 85.2,786 87.9,784.3 88.4,779.5 90.2,776.8 92.1,776.8
			96.4,773.2 98.1,770.9 97.7,768.2 98.7,764.9 97.5,763.8 95.2,762.3 		"/>
		<polygon id="HC" data-title="Hlohovec" points="99.4,680.7 98.7,683 97.5,683.6 94.8,680.7 93.7,685.3 92.6,685.9 89.7,687.2 87.2,685.3 87.1,685.5
			88,687.6 87.1,685.5 85.7,688.9 85.7,690.8 87.2,692.5 89.9,694.2 88.5,696.9 88.5,701.3 85.7,703.6 89.3,705.8 90.6,708.8
			91.8,707 93.5,708.6 96,708.6 96.9,705.8 97.9,705.8 100.7,708.1 100.9,707.4 112.9,690.2 109.4,685.9 106.4,683.6 103.4,680.8
			103.3,680.7 		"/>
		<polygon id="SE" data-title="Senica" points="55.1,674.1 57,671 61.9,671 64.6,671 67.3,668.9 69.9,665.7 71.1,664 72.6,661.3 71.6,659.7 70.9,656
			68.8,652.1 68.9,648.8 70.9,646.7 70.9,644 68.9,641.9 66.9,640.8 64.8,640 64.8,638.6 63.4,636.9 59.6,639.5 58.4,637.8
			55.8,640.6 53.2,644.2 46.7,644.2 45.8,646.9 40.7,646.9 39.3,649.5 37.4,650.7 36,646.9 32.4,648 28.2,648 25,649.5 20.5,649.5
			17.9,650 17.9,653.5 16.7,655.4 14.7,660.5 14.1,664.9 14.9,670.3 19.5,668.6 22,667.8 24.5,666.9 28.9,667.9 31.8,670.1
			40.8,669.1 43.7,665.6 48.6,663.1 52.9,656.4 57,660.3 57,663.5 52.8,667.9 47.3,672.2 52,677.6 53.9,676.2 		"/>
		<polygon id="SI" data-title="Skalica" points="25,649.5 28.2,648 32.4,648 36,646.9 37.4,650.7 39.3,649.5 40.7,646.9 45.8,646.9 46.7,644.2
			53.2,644.2 55.8,640.6 58.4,637.8 58.4,637.8 62,635.3 62,632.9 58,632.3 54.4,628.1 48.4,624 44.3,621.4 39.6,625.7 34.5,627.3
			34.5,630.5 33.2,632.2 32,633.9 27.3,637 25.7,638.6 23.7,641.4 23.7,643.1 21.6,644.4 21.6,646.8 17.9,649.9 17.9,650
			20.5,649.5 		"/>
		<polygon id="PN" data-title="Piešťany" points="77.7,664.2 77,667.8 76,667.8 75.2,668.9 75.2,670.3 77,670.3 82.1,677.3 80.5,678.8 83.4,680.7
			85.7,682.1 87.1,685.5 87.2,685.3 89.7,687.2 92.6,685.9 93.7,685.3 94.8,680.7 97.5,683.6 98.7,683 99.4,680.7 103.3,680.7
			105.4,675.9 107.9,672.8 109.4,671 112.2,671.9 116.2,671.9 117.2,669.7 114.5,666.2 108.2,664.5 104.5,663.5 102.8,660.6
			101.8,663 97.7,662.6 94,660.2 92.5,655.4 87.2,658.1 82.6,655.6 81.5,660.8 77.2,659.9 76.8,661.7 		"/>
		<polygon id="TT" data-title="Trnava" points="70.3,719.3 73.7,716.6 79,716.6 81.3,714 83.8,714 83.8,710.5 88.2,708.6 89.5,710.5 90.6,708.8
			89.3,705.8 85.7,703.7 88.5,701.3 88.5,696.9 89.9,694.2 87.2,692.5 85.7,690.8 85.7,688.9 87.1,685.5 85.7,682.1 83.4,680.7
			80.5,678.8 82.1,677.3 77.1,670.4 75.2,670.4 75.2,668.9 76,667.8 77.1,667.8 77.7,664.2 76.8,661.7 77.2,659.9 75.6,659.6
			72.6,661.3 72.6,661.3 71.2,664 69.9,665.7 67.3,668.9 64.6,671 61.9,671 57.1,671 55.1,674.1 53.9,676.2 52.1,677.6 52.9,678.5
			51.1,681.7 47.8,683.4 48.6,685.3 49.1,686.6 52.5,686.8 55.7,688.9 56.2,691.7 59.9,699.2 61.6,699.2 63.4,703.1 60.7,706.6
			62,708.6 65.6,713.8 65.5,714 67.3,714 		"/>
		<polygon id="GA" data-title="Galanta" points="96.9,705.8 96,708.6 93.5,708.6 91.8,707 90.6,708.8 89.5,710.5 88.2,708.6 83.8,710.5 83.8,714
			81.3,714 78.9,716.6 73.7,716.6 70.3,719.2 67.3,714 65.5,714 61.8,719.2 65.6,722.3 63.9,724.7 66.1,727.8 64.8,729.5
			61.4,729.5 59,731.8 61.2,734.8 62.1,737 64.4,737 66.9,737 65.6,739.3 68.6,739.3 70.3,740.7 72.8,739.3 74.5,740.7 73.5,742
			75.8,742 78.1,743.1 78.1,745.6 80.4,747.3 82.5,747.3 86.1,749.6 87.6,752.6 90.1,756.3 95.2,762.3 97.5,763.8 97.6,763.4
			98.8,761.4 98,755.6 99.3,751 96.4,749.6 95.6,746.9 93.8,747 91.7,747.1 94.9,743.4 88.8,735.3 90.9,734.1 94.1,735.3
			96.3,732.9 94,729.1 95.7,729.1 97.2,730.7 102,727.4 99.2,724.2 99.7,720.4 102,716 98.5,714.7 100.7,708.1 97.9,705.8 		"/>
	</g>
</g>
</svg>
