<?xml version="1.0" encoding="utf-8"?>
<!-- Generator: Adobe Illustrator 19.0.0, SVG Export Plug-In . SVG Version: 6.00 Build 0)  -->
<svg class="zilinsky-kraj" version="1.1" id="svgMap" xmlns="http://www.w3.org/2000/svg" xmlns:xlink="http://www.w3.org/1999/xlink" x="0px" y="0px"
	 viewBox="163.5 531.4 162.1 125.3" style="enable-background:new 163.5 531.4 162.1 125.3;" xml:space="preserve">
<g id="zilina">
	<g>
		<polyline id="NO" data-title="Námestovo" points="266.8,574.7 267.2,574.2 271.7,571.2 271.7,568.5 274.3,567 278.1,564.1 283.3,559.6 285,557.9
			285,554.7 280.6,541.5 279.3,537.1 274.3,534.9 274.3,531.4 272.2,531.4 271.9,532.6 269.1,534.1 267.2,535.8 264.5,536.6
			264.5,541.8 253.9,541.3 251.1,544.3 249.9,548 249.9,553.9 247.4,553.2 244.5,556.1 246.4,559.1 239.5,560.1 238.4,559.3
			237.4,563.6 240.9,565.6 241,569.7 241.7,571.4 241.7,571.4 241.7,571.4 242.5,573 248.7,573 250.1,578.9 255.1,575.7 261,576.7
			264.5,577.7 266.8,574.7 		"/>
		<polyline id="CA" data-title="Čadca" points="193.9,563.4 197.2,561.8 201.1,559.6 206.3,564.6 213.5,567 218.4,571.1 219.7,572.2 232.3,574.5
			236.3,573.2 236.3,573.2 236.3,573.2 241.7,571.4 241,569.7 240.9,565.6 237.4,563.6 238.4,559.3 235.5,557.4 231.6,557.9
			229.8,560.1 224.7,558.9 224.7,556.4 226.6,554.9 224.4,550.2 226.6,544.3 221.2,540.8 209.6,541.3 204.1,544.3 199.4,542.3
			195,542 190.1,541.8 190.1,539.3 184.3,540.1 183.9,541.8 183.9,545.7 179.1,550.9 173.2,555.9 169.6,554.7 168.5,560.1
			165.2,563.6 168,564.6 173.2,564.6 179.1,563.1 183.9,563.1 186.9,563.1 188,563.1 193,563.8 193.9,563.4 		"/>
		<polygon id="BY" data-title="Bytča" points="188.1,595.5 186,593.4 186,586.8 186,582.1 190.1,580.4 187,570.7 186,565.6 186.9,563.1 183.9,563.1
			179.1,563.1 173.2,564.6 168,564.6 165.2,563.6 163.5,565.6 171.9,587 182.1,594.3 182.7,596.4 179.5,599.1 184.3,598 		"/>
		<polygon id="KM" data-title="Kysucké Nové Mesto" points="206.3,564.6 201.1,559.6 197.2,561.8 193.9,563.4 195,565.6 197.2,568.5 197.2,575.7 200.2,576.9
			202.7,576.9 204.1,578.9 208.1,577.7 212,581.1 215.2,580.1 218.1,577.9 218.4,571.1 213.5,567 		"/>
		<polygon id="RK" data-title="Ružomberok" points="257.3,627.5 257.3,624.9 259.5,620 264.5,613.5 264.5,609.8 267.5,605.7 269.1,602.9 266,599.1
			266,597.6 261.2,596.7 256.3,599.1 251.4,599.1 247.6,597.6 243,599.1 241.7,596.5 237.4,596.2 236.3,599.1 236.3,602.4
			234.3,605.7 234.3,611.3 232.3,624.9 235.3,627.6 234.3,629.6 230.8,631.6 229.1,635.1 229.1,637.7 246.4,636.9 246.5,641.3
			250.1,642.2 251.9,640.4 251.9,637.8 253.9,636.3 258,633.2 260.3,633.2 258.8,627.6 		"/>
		<polygon id="TR" data-title="Turčianske Teplice" points="218.5,638.4 216.5,633.1 215.2,629.6 211.5,627.6 206.1,624.9 199.9,621.4 197.9,624.9 191,628.4
			192,632 191.2,640.8 198.6,645.9 197.9,647.9 203.3,654.6 207.1,653 209.4,655.7 213.4,656.7 216.6,656.7 218.5,655.3
			220.4,650.6 218.8,648 223.1,639 221.2,636.3 		"/>
		<polyline id="TS" data-title="Tvrdošín" points="278.6,587.1 278.6,587.1 282.6,588 288,592.7 290.6,591.5 293.7,592.7 297.2,593.8 299.7,592.9
			302.6,586.3 306.6,582.6 304.1,580.4 302.1,580.4 303.6,577.4 304.3,571.2 305.3,570 304.1,562.8 301.1,562.8 296.7,565.6
			289.2,562.8 290.6,556.1 285,554.7 285,557.9 283.3,559.6 278.1,564.1 274.3,567 271.7,568.5 271.7,571.2 267.2,574.2
			266.8,574.7 269.1,576.4 272.2,577.9 275.4,581.1 278.6,583.4 278.6,587.1 		"/>
		<polyline id="DK" data-title="Dolný Kubín" points="236.3,599.1 237.4,596.2 241.7,596.5 243,599.1 247.6,597.6 251.4,599.1 256.3,599.1 261.2,596.7
			266,597.6 266.2,597.6 270.9,595.5 274.3,593.4 275.6,589.8 277.4,587.8 278.6,587.1 278.6,583.4 275.4,581.1 272.2,577.9
			269.1,576.4 266.8,574.7 264.5,577.7 261,576.7 255.1,575.7 250.1,578.9 248.7,573 242.5,573 241.7,571.4 236.3,573.2
			236.3,576.4 234.8,577.9 234.8,582.9 234.8,585.8 231.7,588 232.3,589.8 231.6,593.5 233.6,597.6 236.3,599.1 		"/>
		<polygon id="LM" data-title="Liptovský Mikuláš" points="321.2,630.6 317.7,624.4 321.7,623.4 325.6,611.1 320.7,608.7 318.7,608.7 317.7,606.4 313.2,604.5
			313.2,606.9 311,604.5 312,601.4 309,595.2 305.6,593.5 299.4,593.4 299.7,592.9 297.2,593.8 293.7,592.7 290.6,591.5 288,592.7
			282.6,588 278.6,587.1 278.6,587.1 277.4,587.8 275.6,589.8 274.3,593.4 270.9,595.5 266.2,597.6 266,597.6 266,599.1
			269.1,602.9 267.5,605.7 264.5,609.8 264.5,613.5 259.5,620 257.3,624.9 257.3,627.5 258.8,627.6 260.3,633.2 265.2,633.2
			270.2,630.6 278.9,631.9 284.1,633 287,635.6 290,635.8 294.6,639.7 299.4,638.2 301.5,637.6 304.4,639.3 317,638.2 319.6,640.4
			325.6,636.3 323.5,635.3 		"/>
		<polygon id="MT" data-title="Martin" points="230.8,631.6 234.3,629.6 235.3,627.6 232.3,624.9 234.3,611.3 234.3,605.7 236.3,602.4 236.3,599.1
			233.6,597.6 231.6,593.5 232.3,589.8 231.7,588 231.6,588.1 228.4,591 224.7,591 219.9,593.4 214.7,594.5 211,596.2 208.3,599.1
			206.1,601.9 204.1,605.7 200.6,608.7 197.7,608.7 197.7,613.1 193,618.4 189,618.4 187.3,620 186.2,621.7 193,623.7 194.1,626.7
			191,628.4 197.9,624.9 199.9,621.4 206.1,624.9 211.5,627.6 215.2,629.6 216.5,633.1 218.5,638.4 221.2,636.3 223.1,639
			224.2,636.9 227.5,637.8 229.1,637.7 229.1,635.1 		"/>
		<polygon id="ZA" data-title="Žilina" points="189,618.4 193,618.4 197.7,613.1 197.7,608.7 200.6,608.7 204.1,605.7 206.1,601.9 208.3,599.1
			211,596.2 214.7,594.5 219.9,593.4 224.7,591 228.4,591 231.6,588.1 231.7,588 234.8,585.8 234.8,582.9 234.8,577.9 236.3,576.4
			236.3,573.2 232.3,574.5 219.7,572.2 218.4,571.1 218.1,577.9 215.2,580.1 212,581.1 208.1,577.7 204.1,578.9 202.7,576.9
			200.2,576.9 197.2,575.7 197.2,568.5 195,565.6 193.9,563.4 193,563.8 188,563.1 186.9,563.1 186,565.6 187,570.7 190.1,580.4
			186,582.1 186,586.8 186,593.4 188.1,595.5 184.3,598 179.5,599.1 179.2,599.4 183.9,605.1 183.9,612.6 179.2,616.4 173.2,617.4
			173.2,620 171.5,621.4 169.6,621.4 172.2,623.8 174.3,624.5 178,623.1 180.4,620 181.8,621.4 185.3,621.4 186.2,621.7 187.3,620
					"/>
	</g>
</g>
</svg>
