<?xml version="1.0" encoding="UTF-8"?>
<svg width="283px" height="283px" viewBox="0 0 283 283" version="1.1" xmlns="http://www.w3.org/2000/svg" xmlns:xlink="http://www.w3.org/1999/xlink">
    <!-- Generator: Sketch 59.1 (86144) - https://sketch.com -->
    <title>Artboard</title>
    <desc>Created with Sketch.</desc>
    <g id="Artboard" stroke="none" stroke-width="1" fill="none" fill-rule="evenodd">
        <g id="FamilyHouse-I" transform="translate(92.000000, 31.000000)" fill="#E41B41" fill-rule="nonzero">
            <path d="M20.5,206.3 C20.7,209.6 20.8,212 23.7,215.7 C26.5,218.8 27.2,219.7 31.2,221.2 C33.6,221.5 37.8,223.1 45.4,217.1 L98.3,175.8 C100.7,171.7 100,166 95.1,169.5 L62.4,192 C59.5,194.4 54.8,193.6 52.5,192.5 C50.6,191.6 49.3,190.4 49.8,185.9 C55.2,146.5 60.6,107.1 66,67.7 C65.6,61.1 59.2,58.1 51.4,61.4 L1.6,90.8 C-0.3,92.1 0.3,94.1 0.7,94.9 C1.1,95.7 2.6,96.3 3.9,95.4 C9.9,92.8 14,91 19.9,88.4 C24.9,87.1 30.2,87.5 32.6,91 C34.1,93.5 34.7,94.9 34.2,98.9 L20.8,194 L20.5,206.3 L20.5,206.3 Z" id="Path"></path>
            <ellipse id="Oval" cx="49.2" cy="22.4" rx="24.7" ry="21.5"></ellipse>
        </g>
    </g>
</svg>